<?xml version="1.0" encoding="UTF-8"?>
<svg width="360px" height="180px" viewBox="0 0 360 180" version="1.1" xmlns="http://www.w3.org/2000/svg" xmlns:xlink="http://www.w3.org/1999/xlink">
    <title>GL_HPBrand_oakley</title>
    <g id="GL_HPBrand_oakley" stroke="none" stroke-width="1" fill="none" fill-rule="evenodd">
        <path d="M98.2750561,116.168321 L98.2750561,116.388452 C98.2750561,117.222681 99.0822054,117.396515 100.318808,117.396515 C101.824023,117.396515 102.592519,117.243064 102.592519,116.4991 L102.592519,116.301972 L102.592519,106.174462 L102.592519,105.955786 C102.592519,105.321306 101.668097,105.165234 100.357462,105.165234 C98.9672259,105.165234 98.2750561,105.321306 98.2750561,105.999754 L98.2750561,106.218721 L98.2750561,116.168321 Z M100.357462,103.76437 C103.172657,103.76437 105.758548,103.93966 107.416742,104.223851 C109.422167,104.574722 110.037684,105.057206 110.037684,106.283945 L110.037684,116.694773 C110.037684,118.207741 107.455069,118.8 100.318808,118.8 C94.6088165,118.8 91.6396603,118.317225 91.0211952,117.222681 C90.9448698,117.068065 90.8682169,116.738741 90.8682169,116.278969 L90.8682169,106.437397 C90.8682169,105.14456 91.4840613,104.641402 93.2978541,104.267819 C94.841396,103.93966 97.3856851,103.76437 100.357462,103.76437 Z M136.701552,103.939747 L143.142695,118.537444 L134.696127,118.537444 L133.344545,114.898866 L128.293638,114.898866 L127.133361,118.537444 L121.387336,118.537444 L127.327614,103.939747 L136.701552,103.939747 Z M163.60121,103.939631 L163.60121,109.877652 L169.77374,103.939631 L176.71542,103.939631 L170.427256,109.965297 L176.329207,118.534998 L167.768642,118.534998 L163.60121,112.11391 L163.60121,118.534998 L155.578526,118.534998 L155.578526,103.939631 L163.60121,103.939631 Z M196.89199,103.939631 L196.89199,116.606225 L204.837365,116.606225 L204.837365,118.534998 L188.869306,118.534998 L188.866358,103.939631 L196.89199,103.939631 Z M232.470238,103.937127 L232.470238,105.779419 L224.79282,105.779419 L224.79282,110.294737 L230.697065,110.294737 L230.734736,112.004543 L224.833112,112.004543 L224.833112,116.69486 L232.434532,116.69486 L232.434532,118.534823 L216.769809,118.534823 L216.769809,103.939747 L232.470238,103.937127 Z M250.328678,103.937185 L253.877317,109.39476 L257.465594,103.937185 L263.714121,103.937185 L256.808147,113.120692 L256.808147,118.534881 L248.747792,118.534881 L248.747792,113.120692 L241.765165,103.937185 L250.328678,103.937185 Z M130.605675,107.446712 L128.676248,113.210899 L132.84368,113.210899 L130.605675,107.446712 Z M267.427401,104.021743 C268.374753,104.021743 269.131783,104.487339 269.131783,105.08251 C269.131783,105.678845 268.374753,106.152594 267.416263,106.152594 C266.457774,106.152594 265.69583,105.678845 265.69583,105.08251 C265.69583,104.487339 266.457774,104.021743 267.427401,104.021743 Z M267.404798,104.234887 C266.684457,104.234887 266.122007,104.61837 266.122007,105.08251 C266.122007,105.555968 266.684457,105.929842 267.427401,105.929842 C268.150691,105.939451 268.699054,105.555968 268.699054,105.089207 C268.699054,104.61837 268.150691,104.234887 267.404798,104.234887 Z M267.404798,104.538296 C267.724841,104.538296 267.866681,104.570908 267.978713,104.62332 C268.079279,104.670782 268.150691,104.746489 268.150691,104.850731 C268.150691,104.978268 267.996729,105.063583 267.804769,105.101437 L267.804769,105.115413 C267.967248,105.148608 268.049142,105.231594 268.099916,105.37631 C268.150691,105.536459 268.193931,105.59353 268.224068,105.633421 L267.814924,105.633421 C267.762512,105.59353 267.732047,105.503264 267.682583,105.37631 C267.649498,105.264206 267.548932,105.212667 267.335352,105.212667 L267.152892,105.212667 L267.152892,105.633421 L266.766351,105.633421 L266.766351,104.570908 C266.918674,104.558969 267.131272,104.538296 267.404798,104.538296 Z M267.375644,104.7197 C267.274423,104.7197 267.202683,104.727271 267.160426,104.73193 L267.160426,105.037959 L267.347472,105.037959 C267.56007,105.037959 267.732047,104.991953 267.732047,104.883343 C267.732047,104.784051 267.621982,104.7197 267.375644,104.7197 Z M177.106645,61.2 C208.974955,61.2 235.444144,68.9689572 235.444144,79.1317002 C235.444144,89.2836696 208.974955,97.0613622 177.106645,97.0613622 C145.235387,97.0613622 118.766198,89.2836696 118.766198,79.1340297 C118.766198,68.9651719 145.235387,61.2 177.106645,61.2 Z M226.979003,92.401007 C227.926355,92.401007 228.683712,92.8666028 228.683712,93.4620647 C228.683712,94.0584001 227.926355,94.5318578 226.967865,94.5318578 C226.009375,94.5318578 225.247759,94.0584001 225.247759,93.4620647 C225.247759,92.8666028 226.009375,92.401007 226.979003,92.401007 Z M226.956727,92.6141503 C226.236386,92.6141503 225.673937,92.9976336 225.673937,93.4620647 C225.673937,93.9352312 226.236386,94.3091055 226.979003,94.3091055 C227.702292,94.3187144 228.250656,93.9352312 228.250656,93.4687618 C228.250656,92.9976336 227.702292,92.6141503 226.956727,92.6141503 Z M226.956727,92.9175592 C227.27677,92.9175592 227.418283,92.9501713 227.530314,93.0025836 C227.631208,93.050337 227.702292,93.1257525 227.702292,93.2299947 C227.702292,93.3575313 227.548331,93.4428468 227.356371,93.4807002 L227.356371,93.4946768 C227.519177,93.5278712 227.601071,93.6108574 227.651845,93.7555735 C227.702292,93.9157222 227.74586,93.9727933 227.775997,94.0126849 L227.366853,94.0126849 C227.314114,93.9727933 227.283977,93.8828189 227.234185,93.7555735 C227.2011,93.6434694 227.100861,93.5919307 226.886953,93.5919307 L226.704821,93.5919307 L226.704821,94.0126849 L226.31828,94.0126849 L226.31828,92.9501713 C226.470603,92.938233 226.682873,92.9175592 226.956727,92.9175592 Z M226.927573,93.0992552 C226.826024,93.0992552 226.754612,93.1065347 226.712027,93.1111935 L226.712027,93.4172231 L226.899401,93.4172231 C227.111999,93.4172231 227.283977,93.3712167 227.283977,93.262898 C227.283977,93.1633146 227.173911,93.0992552 226.927573,93.0992552 Z M177.246193,64.7384119 C158.549419,64.7384119 141.698212,70.8112492 141.698212,78.98844 C141.698212,87.1627189 158.536316,93.2282768 177.246193,93.2282768 C195.947553,93.2282768 212.785984,87.1627189 212.785984,78.98844 C212.785984,70.8112492 195.947553,64.7384119 177.246193,64.7384119 Z" id="oakley_black" fill="#231916"></path>
    </g>
</svg>